<svg width="36" height="37" viewBox="0 0 36 37" fill="none" xmlns="http://www.w3.org/2000/svg">
<path d="M0 6.89087C0 3.57716 2.68629 0.890869 6 0.890869H30C33.3137 0.890869 36 3.57716 36 6.89087V30.8909C36 34.2046 33.3137 36.8909 30 36.8909H0V6.89087Z" fill="#97B543"/>
<path d="M26.4097 11.1881C26.7778 10.8377 27.2677 10.6439 27.776 10.6478C28.2842 10.6516 28.7711 10.8528 29.1339 11.2088C29.4967 11.5648 29.707 12.0478 29.7204 12.5559C29.7338 13.064 29.5494 13.5574 29.2059 13.9321L18.7789 26.9723C18.5996 27.1655 18.3832 27.3204 18.1427 27.428C17.9021 27.5356 17.6423 27.5935 17.3789 27.5984C17.1154 27.6033 16.8536 27.555 16.6093 27.4564C16.3649 27.3578 16.1429 27.211 15.9566 27.0246L9.04184 20.1099C8.84928 19.9304 8.69483 19.7141 8.5877 19.4736C8.48058 19.2332 8.42298 18.9737 8.41833 18.7105C8.41369 18.4474 8.4621 18.186 8.56068 17.9419C8.65925 17.6979 8.80597 17.4762 8.99209 17.29C9.1782 17.1039 9.3999 16.9572 9.64395 16.8586C9.888 16.7601 10.1494 16.7116 10.4126 16.7163C10.6757 16.7209 10.9353 16.7785 11.1757 16.8857C11.4161 16.9928 11.6325 17.1472 11.8119 17.3398L17.2841 22.8094L26.36 11.2456C26.3764 11.2255 26.3938 11.2063 26.4123 11.1881H26.4097Z" fill="white"/>
</svg>
