<svg width="10" height="19" viewBox="0 0 10 19" fill="none" xmlns="http://www.w3.org/2000/svg">
<path d="M9.5 3.42944H6.5C5.9477 3.42944 5.5 3.87716 5.5 4.42944V7.42944H9.5C9.6137 7.42692 9.7216 7.47984 9.7892 7.57134C9.8568 7.66284 9.8758 7.78144 9.84 7.88944L9.1 10.0894C9.0318 10.2913 8.8431 10.4278 8.63 10.4294H5.5V17.9294C5.5 18.2055 5.2761 18.4294 5 18.4294H2.5C2.22386 18.4294 2 18.2055 2 17.9294V10.4294H0.5C0.22386 10.4294 0 10.2055 0 9.92944V7.92944C0 7.65334 0.22386 7.42944 0.5 7.42944H2V4.42944C2 2.2203 3.7909 0.429443 6 0.429443H9.5C9.7761 0.429443 10 0.653303 10 0.929443V2.92944C10 3.20558 9.7761 3.42944 9.5 3.42944Z" fill="#323232"/>
</svg>
