<svg width="212" height="75" viewBox="0 0 212 75" fill="none" xmlns="http://www.w3.org/2000/svg">
<path d="M105.377 72.4991L104.462 70.1283C104.435 70.0578 104.407 69.9765 104.377 69.8843C104.347 69.7894 104.319 69.6891 104.292 69.5833C104.235 69.8029 104.176 69.9859 104.117 70.1323L103.202 72.4991H105.377ZM107.02 74.6626H106.41C106.34 74.6626 106.283 74.645 106.24 74.6097C106.196 74.5745 106.164 74.5298 106.142 74.4755L105.597 73.0685H102.982L102.437 74.4755C102.421 74.5243 102.39 74.5677 102.344 74.6057C102.298 74.6436 102.241 74.6626 102.173 74.6626H101.563L103.893 68.8351H104.69L107.02 74.6626ZM116.284 71.6573C116.511 71.6573 116.712 71.6302 116.885 71.576C117.062 71.5191 117.208 71.4405 117.325 71.3401C117.444 71.2371 117.533 71.1151 117.593 70.9741C117.653 70.8332 117.682 70.6773 117.682 70.5065C117.682 70.1595 117.569 69.8978 117.341 69.7216C117.113 69.5454 116.772 69.4573 116.316 69.4573H115.454V71.6573H116.284ZM118.976 74.6626H118.276C118.132 74.6626 118.027 74.607 117.959 74.4959L116.446 72.4137C116.4 72.3487 116.35 72.3026 116.296 72.2755C116.244 72.2456 116.163 72.2307 116.052 72.2307H115.454V74.6626H114.669V68.8351H116.316C116.685 68.8351 117.003 68.873 117.272 68.9489C117.54 69.0221 117.761 69.1292 117.935 69.2702C118.111 69.4112 118.241 69.582 118.325 69.7826C118.409 69.9805 118.451 70.2028 118.451 70.4495C118.451 70.6556 118.419 70.8481 118.353 71.027C118.288 71.2059 118.193 71.3673 118.069 71.5109C117.947 71.6519 117.796 71.7726 117.617 71.8729C117.441 71.9732 117.241 72.0491 117.016 72.1006C117.116 72.1575 117.203 72.2402 117.276 72.3487L118.976 74.6626ZM130.686 73.4589C130.729 73.4589 130.767 73.4765 130.8 73.5117L131.113 73.8493C130.874 74.1258 130.584 74.3413 130.242 74.4959C129.904 74.6504 129.493 74.7277 129.01 74.7277C128.593 74.7277 128.213 74.6558 127.872 74.5121C127.53 74.3657 127.239 74.1624 126.997 73.9021C126.756 73.6392 126.569 73.3247 126.436 72.9587C126.303 72.5927 126.237 72.1901 126.237 71.7509C126.237 71.3117 126.306 70.9091 126.444 70.5431C126.582 70.1771 126.776 69.8626 127.026 69.5996C127.278 69.3366 127.579 69.1333 127.929 68.9896C128.278 68.8432 128.665 68.77 129.088 68.77C129.502 68.77 129.868 68.8364 130.186 68.9693C130.503 69.1021 130.782 69.2824 131.023 69.5101L130.763 69.8721C130.747 69.8992 130.725 69.9222 130.698 69.9412C130.674 69.9575 130.64 69.9656 130.596 69.9656C130.547 69.9656 130.488 69.9399 130.417 69.8883C130.347 69.8341 130.255 69.7745 130.141 69.7094C130.027 69.6443 129.885 69.5861 129.714 69.5345C129.543 69.4803 129.333 69.4532 129.083 69.4532C128.783 69.4532 128.507 69.5061 128.258 69.6118C128.009 69.7148 127.793 69.8653 127.611 70.0632C127.432 70.2611 127.293 70.5024 127.192 70.7871C127.092 71.0717 127.042 71.393 127.042 71.7509C127.042 72.1142 127.094 72.4381 127.197 72.7228C127.302 73.0075 127.445 73.2488 127.624 73.4467C127.805 73.6419 128.018 73.791 128.262 73.894C128.509 73.997 128.774 74.0485 129.059 74.0485C129.233 74.0485 129.388 74.039 129.527 74.0201C129.668 73.9984 129.797 73.9658 129.913 73.9225C130.032 73.8791 130.142 73.8249 130.242 73.7598C130.346 73.692 130.447 73.612 130.547 73.5199C130.594 73.4792 130.64 73.4589 130.686 73.4589ZM143.631 68.8351V74.6626H142.842V72.0111H139.698V74.6626H138.91V68.8351H139.698V71.4337H142.842V68.8351H143.631ZM152.792 74.6626H152.003V68.8351H152.792V74.6626ZM165.105 69.4979H163.218V74.6626H162.433V69.4979H160.542V68.8351H165.105V69.4979ZM176.447 74.0201L176.443 74.6626H172.852V68.8351H176.443V69.4776H173.641V71.4133H175.91V72.0315H173.641V74.0201H176.447ZM188.392 73.4589C188.435 73.4589 188.473 73.4765 188.506 73.5117L188.819 73.8493C188.58 74.1258 188.29 74.3413 187.949 74.4959C187.61 74.6504 187.199 74.7277 186.716 74.7277C186.299 74.7277 185.919 74.6558 185.578 74.5121C185.236 74.3657 184.945 74.1624 184.703 73.9021C184.462 73.6392 184.275 73.3247 184.142 72.9587C184.009 72.5927 183.943 72.1901 183.943 71.7509C183.943 71.3117 184.012 70.9091 184.15 70.5431C184.289 70.1771 184.482 69.8626 184.732 69.5996C184.984 69.3366 185.285 69.1333 185.635 68.9896C185.984 68.8432 186.371 68.77 186.794 68.77C187.208 68.77 187.574 68.8364 187.892 68.9693C188.209 69.1021 188.488 69.2824 188.729 69.5101L188.469 69.8721C188.453 69.8992 188.431 69.9222 188.404 69.9412C188.38 69.9575 188.346 69.9656 188.302 69.9656C188.254 69.9656 188.194 69.9399 188.123 69.8883C188.053 69.8341 187.961 69.7745 187.847 69.7094C187.733 69.6443 187.591 69.5861 187.42 69.5345C187.249 69.4803 187.039 69.4532 186.79 69.4532C186.489 69.4532 186.213 69.5061 185.964 69.6118C185.715 69.7148 185.499 69.8653 185.317 70.0632C185.138 70.2611 184.999 70.5024 184.899 70.7871C184.798 71.0717 184.748 71.393 184.748 71.7509C184.748 72.1142 184.8 72.4381 184.903 72.7228C185.008 73.0075 185.151 73.2488 185.33 73.4467C185.511 73.6419 185.724 73.791 185.968 73.894C186.215 73.997 186.48 74.0485 186.765 74.0485C186.939 74.0485 187.095 74.039 187.233 74.0201C187.374 73.9984 187.503 73.9658 187.619 73.9225C187.738 73.8791 187.848 73.8249 187.949 73.7598C188.052 73.692 188.153 73.612 188.254 73.5199C188.3 73.4792 188.346 73.4589 188.392 73.4589ZM200.556 69.4979H198.669V74.6626H197.884V69.4979H195.993V68.8351H200.556V69.4979ZM211.26 69.746C211.236 69.7867 211.208 69.8179 211.179 69.8395C211.151 69.8585 211.118 69.868 211.077 69.868C211.031 69.868 210.977 69.845 210.914 69.7989C210.852 69.7528 210.773 69.7026 210.678 69.6484C210.586 69.5915 210.474 69.54 210.341 69.4939C210.211 69.4478 210.052 69.4247 209.865 69.4247C209.689 69.4247 209.533 69.4491 209.397 69.4979C209.265 69.544 209.152 69.6077 209.06 69.6891C208.97 69.7704 208.903 69.8667 208.857 69.9778C208.81 70.0863 208.787 70.2042 208.787 70.3316C208.787 70.4943 208.827 70.6298 208.905 70.7383C208.987 70.844 209.092 70.9348 209.223 71.0107C209.355 71.0867 209.504 71.1531 209.67 71.21C209.838 71.2642 210.009 71.3212 210.182 71.3808C210.358 71.4405 210.529 71.5082 210.695 71.5841C210.863 71.6573 211.012 71.7509 211.142 71.8647C211.275 71.9786 211.381 72.1182 211.459 72.2836C211.541 72.449 211.581 72.6523 211.581 72.8936C211.581 73.1484 211.538 73.3884 211.451 73.6134C211.364 73.8357 211.237 74.0296 211.069 74.1949C210.903 74.3603 210.699 74.4904 210.455 74.5853C210.213 74.6802 209.938 74.7277 209.629 74.7277C209.25 74.7277 208.905 74.6599 208.596 74.5243C208.287 74.3861 208.023 74.2004 207.803 73.9672L208.031 73.5931C208.053 73.5632 208.078 73.5388 208.108 73.5199C208.141 73.4982 208.176 73.4873 208.214 73.4873C208.249 73.4873 208.289 73.5022 208.332 73.5321C208.378 73.5592 208.43 73.5944 208.486 73.6378C208.543 73.6812 208.608 73.7286 208.682 73.7801C208.755 73.8316 208.838 73.8791 208.93 73.9225C209.025 73.9658 209.132 74.0024 209.251 74.0323C209.37 74.0594 209.504 74.0729 209.654 74.0729C209.841 74.0729 210.007 74.0472 210.154 73.9957C210.3 73.9442 210.424 73.8723 210.524 73.7801C210.627 73.6852 210.706 73.5727 210.76 73.4426C210.814 73.3125 210.841 73.1674 210.841 73.0075C210.841 72.8312 210.8 72.6876 210.719 72.5764C210.64 72.4625 210.536 72.3676 210.406 72.2917C210.276 72.2158 210.127 72.1521 209.959 72.1006C209.791 72.0464 209.62 71.9922 209.446 71.9379C209.273 71.881 209.102 71.8159 208.934 71.7427C208.766 71.6695 208.617 71.5747 208.486 71.4581C208.356 71.3415 208.251 71.1965 208.169 71.0229C208.091 70.8467 208.051 70.6298 208.051 70.3723C208.051 70.1662 208.091 69.967 208.169 69.7745C208.251 69.582 208.367 69.4112 208.519 69.2621C208.674 69.113 208.862 68.9937 209.084 68.9042C209.309 68.8147 209.567 68.77 209.857 68.77C210.182 68.77 210.478 68.8215 210.743 68.9245C211.012 69.0276 211.248 69.1767 211.451 69.3719L211.26 69.746Z" fill="#323232"/>
<path d="M-1.52588e-05 40.0375C-1.52588e-05 39.3239 0.578495 38.7454 1.29212 38.7454H33.1505V73.2343H1.29212C0.578495 73.2343 -1.52588e-05 72.6558 -1.52588e-05 71.9421V40.0375Z" fill="#97B543"/>
<path d="M43.2436 46.8862H59.178C59.8917 46.8862 60.4702 47.4647 60.4702 48.1784V65.5707C60.4702 66.2843 59.8917 66.8628 59.178 66.8628H43.2436V46.8862Z" fill="#97B543"/>
<path d="M34.4091 2.07935C33.7276 2.07935 33.1751 2.65282 33.1751 3.36023V7.19165C33.1751 7.90528 32.5966 8.48379 31.883 8.48379H14.6664C13.9849 8.48379 13.4324 9.05727 13.4324 9.76468V28.978C13.4324 29.6854 13.9849 30.2589 14.6664 30.2589H31.883C32.5966 30.2589 33.1751 29.6804 33.1751 28.9668V18.1017C33.1751 17.3881 33.7536 16.8096 34.4673 16.8096H62.7892C63.4707 16.8096 64.0231 16.2361 64.0231 15.5287V3.36024C64.0231 2.65282 63.4707 2.07935 62.7892 2.07935H34.4091Z" fill="#97B543"/>
<path d="M43.2436 24.9709H76.3426C77.0562 24.9709 77.6347 25.5495 77.6347 26.2631V37.4531C77.6347 38.1668 77.0562 38.7453 76.3426 38.7453H43.2436V24.9709Z" fill="#97B543"/>
<path d="M112.448 18.6362V32.2767H130.204V40.3045H112.448V60H102.175V10.6423H133.606V18.6362H112.448ZM157.757 52.1762C159.39 52.1762 160.728 51.9835 161.771 51.598C162.837 51.1898 163.687 50.6569 164.322 49.9992C164.957 49.3416 165.4 48.5932 165.649 47.7541C165.899 46.8924 166.023 46.008 166.023 45.1009C166.023 44.103 165.876 43.2073 165.581 42.4136C165.286 41.6198 164.81 40.9509 164.152 40.4066C163.495 39.8397 162.633 39.4088 161.567 39.114C160.524 38.8192 159.231 38.6718 157.689 38.6718H149.015V52.1762H157.757ZM149.015 18.398V31.7324H155.716C157.145 31.7324 158.415 31.6191 159.526 31.3923C160.637 31.1428 161.567 30.7573 162.315 30.2357C163.064 29.7141 163.631 29.0338 164.016 28.1947C164.424 27.333 164.629 26.3012 164.629 25.0993C164.629 23.8747 164.458 22.8315 164.118 21.9698C163.801 21.108 163.302 20.4163 162.622 19.8948C161.941 19.3732 161.08 18.999 160.036 18.7722C158.993 18.5228 157.757 18.398 156.329 18.398H149.015ZM156.329 10.6423C159.64 10.6423 162.463 10.9598 164.799 11.5948C167.157 12.2071 169.073 13.0915 170.547 14.248C172.044 15.3819 173.133 16.7653 173.813 18.398C174.493 20.0308 174.833 21.8564 174.833 23.8747C174.833 25.0085 174.663 26.0971 174.323 27.1402C174.006 28.1834 173.495 29.1699 172.792 30.0997C172.112 31.0068 171.228 31.8345 170.139 32.5828C169.051 33.3312 167.758 33.9662 166.261 34.4878C169.618 35.2815 172.101 36.5741 173.711 38.3656C175.321 40.1571 176.126 42.4816 176.126 45.339C176.126 47.4253 175.718 49.3642 174.901 51.1558C174.108 52.9473 172.94 54.5007 171.398 55.816C169.856 57.1313 167.951 58.1631 165.683 58.9115C163.438 59.6372 160.853 60 157.927 60H138.81V10.6423H156.329ZM211.311 51.7V60H182.023V10.6423H192.228V51.7H211.311Z" fill="#323232"/>
</svg>
