<svg width="107" height="38" viewBox="0 0 107 38" fill="none" xmlns="http://www.w3.org/2000/svg">
<path d="M53.4426 36.8137L52.9896 35.6399C52.9762 35.605 52.9621 35.5647 52.9473 35.5191C52.9326 35.4721 52.9185 35.4224 52.905 35.3701C52.8768 35.4788 52.848 35.5694 52.8185 35.6419L52.3655 36.8137H53.4426ZM54.256 37.8848H53.954C53.9191 37.8848 53.8909 37.876 53.8694 37.8586C53.848 37.8411 53.8319 37.819 53.8211 37.7922L53.5513 37.0955H52.2567L51.9869 37.7922C51.9789 37.8163 51.9635 37.8378 51.9406 37.8566C51.9178 37.8754 51.8896 37.8848 51.8561 37.8848H51.5541L52.7077 34.9996H53.1023L54.256 37.8848ZM58.8421 36.3969C58.9548 36.3969 59.0541 36.3835 59.14 36.3566C59.2273 36.3284 59.2998 36.2895 59.3575 36.2399C59.4165 36.1889 59.4608 36.1285 59.4904 36.0587C59.5199 35.9889 59.5347 35.9117 59.5347 35.8271C59.5347 35.6553 59.4783 35.5258 59.3655 35.4385C59.2528 35.3513 59.0837 35.3077 58.8582 35.3077H58.4313V36.3969H58.8421ZM60.1749 37.8848H59.8286C59.7575 37.8848 59.7051 37.8572 59.6716 37.8022L58.9226 36.7714C58.8998 36.7392 58.8749 36.7163 58.8481 36.7029C58.8226 36.6882 58.7823 36.6808 58.7273 36.6808H58.4313V37.8848H58.0428V34.9996H58.8582C59.0407 34.9996 59.1984 35.0184 59.3313 35.056C59.4642 35.0922 59.5736 35.1453 59.6595 35.2151C59.7467 35.2849 59.8112 35.3694 59.8528 35.4687C59.8944 35.5667 59.9152 35.6768 59.9152 35.7989C59.9152 35.9009 59.8991 35.9962 59.8669 36.0848C59.8346 36.1734 59.7877 36.2533 59.7259 36.3244C59.6655 36.3942 59.591 36.4539 59.5024 36.5036C59.4152 36.5533 59.3159 36.5909 59.2045 36.6164C59.2541 36.6445 59.2971 36.6855 59.3333 36.7392L60.1749 37.8848ZM65.9724 37.2888C65.9939 37.2888 66.0127 37.2975 66.0288 37.315L66.1838 37.4821C66.0657 37.619 65.9221 37.7257 65.753 37.8022C65.5852 37.8787 65.3819 37.917 65.1429 37.917C64.9362 37.917 64.7483 37.8814 64.5792 37.8103C64.4101 37.7378 64.2658 37.6371 64.1463 37.5083C64.0269 37.3781 63.9343 37.2224 63.8685 37.0412C63.8027 36.86 63.7698 36.6606 63.7698 36.4432C63.7698 36.2258 63.8041 36.0264 63.8725 35.8452C63.941 35.664 64.0369 35.5083 64.1604 35.3781C64.2852 35.2479 64.4342 35.1473 64.6074 35.0761C64.7805 35.0037 64.9718 34.9674 65.1812 34.9674C65.3866 34.9674 65.5678 35.0003 65.7248 35.0661C65.8818 35.1318 66.0201 35.2211 66.1395 35.3338L66.0107 35.513C66.0026 35.5265 65.9919 35.5379 65.9785 35.5473C65.9664 35.5553 65.9496 35.5593 65.9281 35.5593C65.904 35.5593 65.8745 35.5466 65.8396 35.5211C65.8047 35.4942 65.759 35.4647 65.7026 35.4325C65.6463 35.4003 65.5758 35.3714 65.4912 35.3459C65.4067 35.3191 65.3027 35.3057 65.1792 35.3057C65.0302 35.3057 64.8939 35.3318 64.7705 35.3842C64.647 35.4352 64.5403 35.5097 64.4503 35.6077C64.3618 35.7056 64.2926 35.8251 64.243 35.966C64.1933 36.107 64.1685 36.266 64.1685 36.4432C64.1685 36.6231 64.194 36.7835 64.245 36.9244C64.2973 37.0653 64.3678 37.1848 64.4564 37.2828C64.5463 37.3794 64.6517 37.4532 64.7725 37.5042C64.8946 37.5552 65.0262 37.5807 65.1671 37.5807C65.253 37.5807 65.3302 37.5761 65.3986 37.5667C65.4684 37.5559 65.5322 37.5398 65.5899 37.5183C65.649 37.4969 65.7033 37.47 65.753 37.4378C65.804 37.4042 65.8543 37.3646 65.904 37.319C65.9268 37.2989 65.9496 37.2888 65.9724 37.2888ZM72.3814 34.9996V37.8848H71.9908V36.5721H70.4345V37.8848H70.0439V34.9996H70.4345V36.2862H71.9908V34.9996H72.3814ZM76.9168 37.8848H76.5262V34.9996H76.9168V37.8848ZM83.013 35.3278H82.0788V37.8848H81.6902V35.3278H80.754V34.9996H83.013V35.3278ZM88.6281 37.5667L88.6261 37.8848H86.8483V34.9996H88.6261V35.3177H87.2389V36.2761H88.3623V36.5821H87.2389V37.5667H88.6281ZM94.542 37.2888C94.5635 37.2888 94.5823 37.2975 94.5984 37.315L94.7534 37.4821C94.6353 37.619 94.4917 37.7257 94.3226 37.8022C94.1548 37.8787 93.9514 37.917 93.7125 37.917C93.5058 37.917 93.3179 37.8814 93.1488 37.8103C92.9797 37.7378 92.8354 37.6371 92.7159 37.5083C92.5965 37.3781 92.5038 37.2224 92.4381 37.0412C92.3723 36.86 92.3394 36.6606 92.3394 36.4432C92.3394 36.2258 92.3737 36.0264 92.4421 35.8452C92.5106 35.664 92.6065 35.5083 92.73 35.3781C92.8548 35.2479 93.0038 35.1473 93.177 35.0761C93.3501 35.0037 93.5414 34.9674 93.7508 34.9674C93.9561 34.9674 94.1373 35.0003 94.2944 35.0661C94.4514 35.1318 94.5897 35.2211 94.7091 35.3338L94.5803 35.513C94.5722 35.5265 94.5615 35.5379 94.5481 35.5473C94.536 35.5553 94.5192 35.5593 94.4977 35.5593C94.4736 35.5593 94.444 35.5466 94.4092 35.5211C94.3743 35.4942 94.3286 35.4647 94.2722 35.4325C94.2159 35.4003 94.1454 35.3714 94.0608 35.3459C93.9763 35.3191 93.8723 35.3057 93.7488 35.3057C93.5998 35.3057 93.4635 35.3318 93.3401 35.3842C93.2166 35.4352 93.1099 35.5097 93.0199 35.6077C92.9313 35.7056 92.8622 35.8251 92.8126 35.966C92.7629 36.107 92.7381 36.266 92.7381 36.4432C92.7381 36.6231 92.7636 36.7835 92.8146 36.9244C92.8669 37.0653 92.9374 37.1848 93.026 37.2828C93.1159 37.3794 93.2213 37.4532 93.3421 37.5042C93.4642 37.5552 93.5958 37.5807 93.7367 37.5807C93.8226 37.5807 93.8998 37.5761 93.9682 37.5667C94.038 37.5559 94.1018 37.5398 94.1595 37.5183C94.2186 37.4969 94.2729 37.47 94.3226 37.4378C94.3736 37.4042 94.4239 37.3646 94.4736 37.319C94.4964 37.2989 94.5192 37.2888 94.542 37.2888ZM100.564 35.3278H99.6303V37.8848H99.2417V35.3278H98.3055V34.9996H100.564V35.3278ZM105.864 35.4506C105.852 35.4708 105.838 35.4862 105.824 35.4969C105.81 35.5063 105.793 35.511 105.773 35.511C105.75 35.511 105.724 35.4996 105.693 35.4768C105.662 35.454 105.623 35.4291 105.576 35.4023C105.53 35.3741 105.475 35.3486 105.409 35.3258C105.344 35.303 105.266 35.2916 105.173 35.2916C105.086 35.2916 105.009 35.3036 104.942 35.3278C104.876 35.3506 104.82 35.3822 104.775 35.4224C104.73 35.4627 104.697 35.5104 104.674 35.5654C104.651 35.6191 104.64 35.6775 104.64 35.7405C104.64 35.8211 104.659 35.8882 104.698 35.9419C104.738 35.9942 104.791 36.0392 104.855 36.0768C104.921 36.1144 104.995 36.1472 105.077 36.1754C105.16 36.2023 105.244 36.2305 105.33 36.26C105.418 36.2895 105.502 36.3231 105.584 36.3607C105.667 36.3969 105.741 36.4432 105.805 36.4996C105.871 36.556 105.924 36.6251 105.962 36.707C106.003 36.7888 106.023 36.8895 106.023 37.009C106.023 37.1351 106.001 37.2539 105.958 37.3653C105.915 37.4754 105.852 37.5714 105.769 37.6532C105.687 37.7351 105.586 37.7995 105.465 37.8465C105.346 37.8935 105.209 37.917 105.056 37.917C104.869 37.917 104.698 37.8834 104.545 37.8163C104.392 37.7479 104.261 37.6559 104.152 37.5405L104.265 37.3553C104.276 37.3405 104.289 37.3284 104.303 37.319C104.32 37.3083 104.337 37.3029 104.356 37.3029C104.373 37.3029 104.393 37.3103 104.414 37.3251C104.437 37.3385 104.462 37.3559 104.491 37.3774C104.519 37.3989 104.551 37.4224 104.587 37.4479C104.624 37.4734 104.665 37.4969 104.71 37.5183C104.757 37.5398 104.81 37.5579 104.869 37.5727C104.928 37.5861 104.995 37.5928 105.069 37.5928C105.161 37.5928 105.244 37.5801 105.316 37.5546C105.389 37.5291 105.45 37.4935 105.499 37.4479C105.55 37.4009 105.589 37.3452 105.616 37.2808C105.643 37.2163 105.656 37.1445 105.656 37.0653C105.656 36.9781 105.636 36.9069 105.596 36.8519C105.557 36.7955 105.505 36.7486 105.441 36.711C105.377 36.6734 105.303 36.6419 105.22 36.6164C105.136 36.5895 105.052 36.5627 104.966 36.5358C104.88 36.5076 104.795 36.4754 104.712 36.4392C104.629 36.4029 104.555 36.356 104.491 36.2982C104.426 36.2405 104.374 36.1687 104.334 36.0828C104.295 35.9956 104.275 35.8882 104.275 35.7607C104.275 35.6587 104.295 35.56 104.334 35.4647C104.374 35.3694 104.432 35.2849 104.507 35.211C104.583 35.1372 104.677 35.0782 104.787 35.0339C104.898 34.9896 105.026 34.9674 105.169 34.9674C105.33 34.9674 105.477 34.9929 105.608 35.0439C105.741 35.0949 105.858 35.1688 105.958 35.2654L105.864 35.4506Z" fill="#323232"/>
<path d="M0 20.713C0 20.3597 0.286414 20.0732 0.639723 20.0732H16.8275V37.1483H0.639722C0.286413 37.1483 0 36.8619 0 36.5086V20.713Z" fill="#97B543"/>
<path d="M21.9509 24.1038H30.0555C30.4088 24.1038 30.6953 24.3902 30.6953 24.7435V33.3542C30.6953 33.7075 30.4088 33.9939 30.0555 33.9939H21.9509V24.1038Z" fill="#97B543"/>
<path d="M17.4664 1.92041C17.1205 1.92041 16.8401 2.20433 16.8401 2.55456V4.45146C16.8401 4.80476 16.5536 5.09118 16.2003 5.09118H7.44481C7.09888 5.09118 6.81846 5.3751 6.81846 5.72533V15.2376C6.81846 15.5879 7.09888 15.8718 7.44481 15.8718H16.2003C16.5536 15.8718 16.8401 15.5854 16.8401 15.2321V9.8529C16.8401 9.49959 17.1265 9.21318 17.4798 9.21318H31.8724C32.2184 9.21318 32.4988 8.92926 32.4988 8.57902V2.55456C32.4988 2.20433 32.2184 1.92041 31.8724 1.92041H17.4664Z" fill="#97B543"/>
<path d="M21.9509 13.2537H38.7684C39.1217 13.2537 39.4081 13.5401 39.4081 13.8934V19.4335C39.4081 19.7868 39.1217 20.0732 38.7684 20.0732H21.9509V13.2537Z" fill="#97B543"/>
<path d="M56.8862 10.4119V17.1651H65.6772V21.1396H56.8862V30.8906H51.8002V6.4542H67.3614V10.4119H56.8862ZM79.3185 27.0172C80.1268 27.0172 80.7893 26.9217 81.3057 26.7309C81.8334 26.5288 82.2544 26.2649 82.5688 25.9393C82.8832 25.6138 83.1021 25.2432 83.2256 24.8278C83.3491 24.4012 83.4109 23.9633 83.4109 23.5142C83.4109 23.0202 83.3379 22.5767 83.1919 22.1838C83.046 21.7908 82.8102 21.4596 82.4846 21.1902C82.159 20.9095 81.7324 20.6962 81.2047 20.5502C80.6882 20.4042 80.0483 20.3313 79.2848 20.3313H74.9903V27.0172H79.3185ZM74.9903 10.294V16.8957H78.308C79.0153 16.8957 79.6441 16.8395 80.1942 16.7273C80.7444 16.6038 81.2047 16.4129 81.5752 16.1547C81.9457 15.8964 82.2264 15.5596 82.4172 15.1442C82.6193 14.7176 82.7204 14.2067 82.7204 13.6117C82.7204 13.0054 82.6362 12.4889 82.4678 12.0623C82.3106 11.6356 82.0636 11.2932 81.7268 11.035C81.3899 10.7768 80.9633 10.5915 80.4468 10.4792C79.9304 10.3557 79.3185 10.294 78.6111 10.294H74.9903ZM78.6111 6.4542C80.2503 6.4542 81.6482 6.61139 82.8046 6.92575C83.9722 7.22889 84.9209 7.66676 85.6507 8.23936C86.3917 8.80073 86.9306 9.4856 87.2675 10.294C87.6043 11.1023 87.7727 12.0061 87.7727 13.0054C87.7727 13.5668 87.6885 14.1057 87.5201 14.6221C87.3629 15.1386 87.1103 15.627 86.7622 16.0873C86.4254 16.5364 85.9875 16.9462 85.4486 17.3167C84.9097 17.6872 84.2698 18.0016 83.5287 18.2598C85.1904 18.6528 86.4198 19.2927 87.2169 20.1797C88.0141 21.0667 88.4127 22.2175 88.4127 23.6321C88.4127 24.665 88.2106 25.625 87.8064 26.5119C87.4134 27.3989 86.8352 28.168 86.0718 28.8192C85.3083 29.4704 84.3652 29.9812 83.2424 30.3517C82.1309 30.711 80.851 30.8906 79.4027 30.8906H69.938V6.4542H78.6111ZM105.832 26.7814V30.8906H91.3322V6.4542H96.3845V26.7814H105.832Z" fill="#323232"/>
</svg>
