<svg width="24" height="25" viewBox="0 0 24 25" fill="none" xmlns="http://www.w3.org/2000/svg">
<path fill-rule="evenodd" clip-rule="evenodd" d="M16 3.42944H8C5.23858 3.42944 3 5.66802 3 8.42944V16.4294C3 19.1908 5.23858 21.4294 8 21.4294H16C18.7614 21.4294 21 19.1908 21 16.4294V8.42944C21 5.66802 18.7614 3.42944 16 3.42944ZM19.25 16.4294C19.2445 18.222 17.7926 19.6739 16 19.6794H8C6.20735 19.6739 4.75549 18.222 4.75 16.4294V8.42944C4.75549 6.63679 6.20735 5.18493 8 5.17944H16C17.7926 5.18493 19.2445 6.63679 19.25 8.42944V16.4294ZM16.75 8.67944C17.3023 8.67944 17.75 8.23172 17.75 7.67944C17.75 7.12716 17.3023 6.67944 16.75 6.67944C16.1977 6.67944 15.75 7.12716 15.75 7.67944C15.75 8.23172 16.1977 8.67944 16.75 8.67944ZM12 7.92944C9.51472 7.92944 7.5 9.94416 7.5 12.4294C7.5 14.9147 9.51472 16.9294 12 16.9294C14.4853 16.9294 16.5 14.9147 16.5 12.4294C16.5027 11.2351 16.0294 10.089 15.1849 9.24452C14.3404 8.40003 13.1943 7.92678 12 7.92944ZM9.25 12.4294C9.25 13.9482 10.4812 15.1794 12 15.1794C13.5188 15.1794 14.75 13.9482 14.75 12.4294C14.75 10.9106 13.5188 9.67944 12 9.67944C10.4812 9.67944 9.25 10.9106 9.25 12.4294Z" fill="#323232"/>
</svg>
