<svg width="24" height="25" viewBox="0 0 24 25" fill="none" xmlns="http://www.w3.org/2000/svg">
<path fill-rule="evenodd" clip-rule="evenodd" d="M5 3.42944H19C20.1046 3.42944 21 4.32487 21 5.42944V19.4294C21 20.534 20.1046 21.4294 19 21.4294H5C3.89543 21.4294 3 20.534 3 19.4294V5.42944C3 4.32487 3.89543 3.42944 5 3.42944ZM8 18.4294C8.27614 18.4294 8.5 18.2055 8.5 17.9294V10.9294C8.5 10.6533 8.27614 10.4294 8 10.4294H6.5C6.22386 10.4294 6 10.6533 6 10.9294V17.9294C6 18.2055 6.22386 18.4294 6.5 18.4294H8ZM7.25 9.42944C6.42157 9.42944 5.75 8.75787 5.75 7.92944C5.75 7.10101 6.42157 6.42944 7.25 6.42944C8.07843 6.42944 8.75 7.10101 8.75 7.92944C8.75 8.75787 8.07843 9.42944 7.25 9.42944ZM17.5 18.4294C17.7761 18.4294 18 18.2055 18 17.9294V13.3294C18.0325 11.7402 16.8576 10.384 15.28 10.1894C14.177 10.0887 13.1083 10.6038 12.5 11.5294V10.9294C12.5 10.6533 12.2761 10.4294 12 10.4294H10.5C10.2239 10.4294 10 10.6533 10 10.9294V17.9294C10 18.2055 10.2239 18.4294 10.5 18.4294H12C12.2761 18.4294 12.5 18.2055 12.5 17.9294V14.1794C12.5 13.351 13.1716 12.6794 14 12.6794C14.8284 12.6794 15.5 13.351 15.5 14.1794V17.9294C15.5 18.2055 15.7239 18.4294 16 18.4294H17.5Z" fill="#323232"/>
</svg>
