<svg width="35" height="34" viewBox="0 0 35 34" fill="none" xmlns="http://www.w3.org/2000/svg">
<path d="M0.459351 5.60081C0.459351 2.50757 2.96692 0 6.06016 0H28.7698C31.8631 0 34.3707 2.50757 34.3707 5.60081V28.3105C34.3707 31.4037 31.8631 33.9113 28.7698 33.9113H0.459351V5.60081Z" fill="#97B543"/>
<path fill-rule="evenodd" clip-rule="evenodd" d="M15.0663 13.6898H18.7803V15.5398C19.3153 14.4758 20.6873 13.5198 22.7483 13.5198C26.6993 13.5198 27.6373 15.6378 27.6373 19.5238V26.7208H23.6373V20.4088C23.6373 18.1958 23.1023 16.9478 21.7403 16.9478C19.8513 16.9478 19.0663 18.2928 19.0663 20.4078V26.7208H15.0663V13.6898V13.6898ZM8.20727 26.5508H12.2073V13.5198H8.20727V26.5508V26.5508ZM12.7803 9.27083C12.7804 9.6061 12.7139 9.93806 12.5847 10.2474C12.4554 10.5568 12.2659 10.8373 12.0273 11.0728C11.5437 11.5534 10.8891 11.8225 10.2073 11.8208C9.52666 11.8204 8.87358 11.552 8.38927 11.0738C8.15148 10.8375 7.96265 10.5566 7.83361 10.2473C7.70457 9.93786 7.63785 9.60605 7.63727 9.27083C7.63727 8.59383 7.90727 7.94583 8.39027 7.46783C8.87415 6.98898 9.52751 6.72053 10.2083 6.72083C10.8903 6.72083 11.5443 6.98983 12.0273 7.46783C12.5093 7.94583 12.7803 8.59383 12.7803 9.27083Z" fill="#F8F8F8"/>
</svg>
