<svg width="34" height="35" viewBox="0 0 34 35" fill="none" xmlns="http://www.w3.org/2000/svg">
<path d="M0 5.74168C0 2.64844 2.50757 0.140869 5.60081 0.140869H28.3105C31.4037 0.140869 33.9113 2.64844 33.9113 5.74168V28.4514C33.9113 31.5446 31.4037 34.0522 28.3105 34.0522H0V5.74168Z" fill="#97B543"/>
<path fill-rule="evenodd" clip-rule="evenodd" d="M14.6005 22.954C15.3133 23.9698 16.1486 25.1603 17.126 26.5778L17.1268 26.5745L17.1284 26.5778C17.2121 26.6972 17.3233 26.7946 17.4528 26.8618C17.5822 26.9289 17.7259 26.9638 17.8717 26.9635C18.0175 26.9632 18.1611 26.9277 18.2903 26.86C18.4194 26.7922 18.5303 26.6943 18.6134 26.5745C19.5923 25.1551 20.4287 23.9635 21.1423 22.9468C24.4205 18.2761 25.106 17.2995 25.106 14.9033C25.106 10.9064 21.8665 7.66699 17.8697 7.66699C13.8729 7.66699 10.6334 10.9064 10.6334 14.9033C10.6334 17.3003 11.3193 18.2778 14.6005 22.954ZM17.8695 18.2092C19.781 18.2092 21.3305 16.6596 21.3305 14.7482C21.3305 12.8367 19.781 11.2871 17.8695 11.2871C15.958 11.2871 14.4084 12.8367 14.4084 14.7482C14.4084 16.6596 15.958 18.2092 17.8695 18.2092Z" fill="#F5F5F5"/>
</svg>
