<svg width="24" height="25" viewBox="0 0 24 25" fill="none" xmlns="http://www.w3.org/2000/svg">
<path d="M20.9728 7.14685C20.5084 7.76637 19.947 8.30678 19.3103 8.74721C19.3103 8.90904 19.3103 9.07087 19.3103 9.2417C19.3154 12.1805 18.1415 14.9985 16.0518 17.0639C13.962 19.1293 11.1312 20.2693 8.19405 20.2283C6.49599 20.234 4.81967 19.8463 3.29642 19.0955C3.21428 19.0596 3.16131 18.9784 3.16162 18.8887V18.7898C3.16162 18.6607 3.26623 18.5561 3.39527 18.5561C5.06442 18.501 6.67402 17.9223 7.99634 16.9018C6.48553 16.8713 5.12619 15.9763 4.5006 14.6001C4.46901 14.525 4.47884 14.4387 4.52657 14.3726C4.57429 14.3065 4.653 14.2701 4.73425 14.2765C5.19342 14.3226 5.65718 14.2799 6.1002 14.1506C4.43239 13.8044 3.17921 12.4198 2.99986 10.7251C2.99349 10.6438 3.02992 10.5651 3.096 10.5173C3.16207 10.4696 3.24824 10.4597 3.32338 10.4914C3.77094 10.6889 4.25409 10.7929 4.74324 10.797C3.28184 9.83791 2.65061 8.0135 3.20655 6.35567C3.26394 6.19458 3.40181 6.07557 3.5695 6.04239C3.73718 6.0092 3.90996 6.06673 4.02432 6.19384C5.99639 8.2927 8.70604 9.54341 11.5819 9.68224C11.5083 9.3883 11.4721 9.08621 11.4741 8.78316C11.501 7.19416 12.4842 5.77866 13.9634 5.19932C15.4425 4.61999 17.1249 4.99148 18.223 6.13989C18.9714 5.9973 19.695 5.7459 20.3707 5.39366C20.4202 5.36276 20.483 5.36276 20.5325 5.39366C20.5634 5.44318 20.5634 5.50597 20.5325 5.55549C20.2052 6.30497 19.6523 6.93357 18.9509 7.35364C19.5651 7.28241 20.1685 7.13752 20.7482 6.92209C20.797 6.88887 20.8611 6.88887 20.9099 6.92209C20.9508 6.94079 20.9814 6.97656 20.9935 7.01987C21.0056 7.06317 20.998 7.10963 20.9728 7.14685Z" fill="#323232"/>
</svg>
