<svg width="21" height="21" viewBox="0 0 21 21" fill="none" xmlns="http://www.w3.org/2000/svg">
<path fill-rule="evenodd" clip-rule="evenodd" d="M8.06627 7.68983H11.7803V9.53983C12.3153 8.47583 13.6873 7.51983 15.7483 7.51983C19.6993 7.51983 20.6373 9.63783 20.6373 13.5238V20.7208H16.6373V14.4088C16.6373 12.1958 16.1023 10.9478 14.7403 10.9478C12.8513 10.9478 12.0663 12.2928 12.0663 14.4078V20.7208H8.06627V7.68983ZM1.20727 20.5508H5.20727V7.51983H1.20727V20.5508ZM5.78027 3.27083C5.78042 3.6061 5.71392 3.93806 5.58466 4.24741C5.45539 4.55676 5.26592 4.83734 5.02727 5.07283C4.54367 5.55345 3.88908 5.82248 3.20727 5.82083C2.52666 5.82037 1.87358 5.55202 1.38927 5.07383C1.15148 4.83754 0.962654 4.55665 0.833612 4.24726C0.70457 3.93786 0.637847 3.60605 0.637268 3.27083C0.637268 2.59383 0.907268 1.94583 1.39027 1.46783C1.87415 0.988984 2.52751 0.720526 3.20827 0.720825C3.89027 0.720825 4.54427 0.989825 5.02727 1.46783C5.50927 1.94583 5.78027 2.59383 5.78027 3.27083Z" fill="#F8F8F8"/>
</svg>
